<svg width="100" height="100" viewBox="0 0 100 100" fill="none" xmlns="http://www.w3.org/2000/svg">
<rect width="100" height="100" fill="#9AE8FF"/>
<path d="M45.52 74.72C45.52 72.48 45.8933 69.6 46.64 66.08C47.3867 62.56 48.3733 58.8 49.6 54.8C46.08 55.0667 42.5333 55.4133 38.96 55.84C35.44 56.2667 32.3733 56.5067 29.76 56.56C27.36 62.16 25.44 67.3333 24 72.08C22.6133 76.7733 21.52 81.36 20.72 85.84C18.6933 85.36 17.0133 84.5067 15.68 83.28C14.3467 82.1067 13.12 80.6133 12 78.8C12.4267 77.9467 12.9067 76.8533 13.44 75.52C14.0267 74.1867 14.6933 72.5867 15.44 70.72C16.24 68.8 17.12 66.5867 18.08 64.08C19.0933 61.52 20.24 58.56 21.52 55.2C19.76 54.4533 18.5867 53.4133 18 52.08C18.2667 51.8667 18.8533 51.6533 19.76 51.44C20.72 51.1733 21.8933 50.9067 23.28 50.64L24.32 48.08C25.44 45.2 26.3467 42.7733 27.04 40.8C27.7867 38.8267 28.4 36.9067 28.88 35.04C29.4133 33.12 29.8933 31.0133 30.32 28.72C30.8 26.4267 31.36 23.52 32 20C34.24 20.4267 36.2667 21.4133 38.08 22.96C39.9467 24.5067 41.5467 26.3733 42.88 28.56C42.4 29.2 41.8133 30.16 41.12 31.44C40.4267 32.72 39.6533 34.2667 38.8 36.08C38 37.84 37.12 39.84 36.16 42.08C35.2 44.2667 34.16 46.5867 33.04 49.04C36.3467 48.6133 39.68 48.2133 43.04 47.84C46.4533 47.4667 49.4667 47.2 52.08 47.04C53.04 44.2667 54.0267 41.5733 55.04 38.96C56.1067 36.2933 57.1467 33.8667 58.16 31.68C59.1733 29.4933 60.1333 27.5733 61.04 25.92C62 24.2667 62.8533 23.04 63.6 22.24C64.1333 22.2933 64.8267 22.5067 65.68 22.88C66.5867 23.2 67.4933 23.6 68.4 24.08C69.3067 24.56 70.1333 25.0933 70.88 25.68C71.6267 26.2133 72.1333 26.72 72.4 27.2C71.44 28.1067 70.48 29.28 69.52 30.72C68.56 32.16 67.6 33.8133 66.64 35.68C65.7333 37.5467 64.8267 39.5733 63.92 41.76C63.0133 43.9467 62.16 46.2133 61.36 48.56C62.4267 49.52 62.96 50.72 62.96 52.16C62.96 53.1733 62.7467 54.1067 62.32 54.96C61.84 54.8533 61.36 54.8 60.88 54.8C60.4 54.7467 59.8933 54.6933 59.36 54.64C58.4533 57.52 57.6267 60.3733 56.88 63.2C56.1333 66.0267 55.4933 68.72 54.96 71.28C54.48 73.84 54.08 76.1867 53.76 78.32C53.4933 80.4533 53.36 82.24 53.36 83.68C53.36 84.2133 53.36 84.64 53.36 84.96C53.4133 85.28 53.4667 85.5467 53.52 85.76C52.3467 85.7067 51.4933 85.4933 50.96 85.12C50.4267 84.8 50.0267 84.4267 49.76 84C49.4933 83.6267 49.2533 83.2267 49.04 82.8C48.8267 82.4267 48.48 82.1333 48 81.92C47.6267 81.76 47.28 81.3867 46.96 80.8C46.64 80.2133 46.3733 79.5467 46.16 78.8C45.9467 78.0533 45.7867 77.3067 45.68 76.56C45.5733 75.8133 45.52 75.2 45.52 74.72Z" fill="black"/>
<path d="M70.2244 82.4C69.371 82.2933 68.4644 81.92 67.5044 81.28C66.5977 80.6933 66.011 80.0267 65.7444 79.28C65.7444 78.64 65.8244 77.8133 65.9844 76.8C66.1977 75.7867 66.4377 74.7733 66.7044 73.76C66.971 72.6933 67.2377 71.7067 67.5044 70.8C67.771 69.84 67.9577 69.12 68.0644 68.64C68.7044 68.64 69.5044 68.8 70.4644 69.12C71.4777 69.44 72.491 69.8933 73.5044 70.48C74.571 71.0133 75.5577 71.6533 76.4644 72.4C77.4244 73.0933 78.1444 73.8133 78.6244 74.56C78.1444 75.6267 77.531 76.64 76.7844 77.6C76.0377 78.56 75.2377 79.3867 74.3844 80.08C73.5844 80.8267 72.811 81.3867 72.0644 81.76C71.3177 82.1867 70.7044 82.4 70.2244 82.4Z" fill="black"/>
</svg>
